<svg xmlns="http://www.w3.org/2000/svg" version="1.1" xmlns:xlink="http://www.w3.org/1999/xlink" xmlns:svgjs="http://svgjs.dev/svgjs" width="100%" height="100%" viewBox="0 0 1000 600"><rect width="1000" height="600" x="0" y="0" fill="#737373"/><g><rect width="333.3333333333333" height="333.3333333333333" rx="13.333333333333334" ry="13.333333333333334" y="211.02977666342713" fill="#f2f2f2" transform="matrix(0.6620497127724062,0,0,0.6620497127724063,0,49.94617504678261)" x="188.80752563476562"/><path d="M302.3967689271572 406.0457134267522L228.71255970498157 371.7481933726285L228.71255970498157 360.0039569558709L302.3967689271572 325.40195669834975L302.3967689271572 341.9961277835091L246.328914330118 366.8112643603989L246.328914330118 364.9408859681005L302.3967689271572 389.06006779436757L302.3967689271572 406.0457134267522ZM341.69646375138143 452.6964303044283L325.8852417606725 452.6964303044283L369.4259108465036 302.696432959285L385.23713283721247 302.696432959285L341.69646375138143 452.6964303044283ZM408.573365569029 406.0457134267522L482.2358262052478 371.7481933726285L482.2358262052478 360.0039569558709L408.573365569029 325.40195669834975L408.573365569029 341.9961277835091L464.6194715801113 366.8112643603989L464.6194715801113 364.9408859681005L408.573365569029 389.06006779436757L408.573365569029 406.0457134267522Z " fill="#737373" transform="matrix(0.6620497127724062,0,0,0.6620497127724063,0,49.94617504678261)"/><path d="M627.0151271630359 451.2248499715771L605.4741944695978 451.2248499715771L605.4741944695978 315.483990242609L627.0151271630359 315.483990242609L627.0151271630359 451.2248499715771ZM682.2756117405486 451.2248499715771L661.2674936367008 451.2248499715771L661.2674936367008 349.66024034633233L680.169725505501 349.66024034633233L680.2712139987564 360.4433927547084Q684.0262882492025 357.88080830001195 689.7350159948134 355.0391304888634Q695.4437437404242 352.22282480102876 702.0658679253327 350.19305493592265Q708.6879921102412 348.1886571941304 715.2593720485221 348.0110523309337L715.2593720485221 348.0110523309337Q731.599019462626 347.55435411128485 738.728586113811 356.4599693944376Q745.858152764996 365.3655846775905 745.858152764996 387.7437974403849L745.858152764996 387.7437974403849L745.858152764996 451.2248499715771L724.6724297979515 451.2248499715771L724.6724297979515 388.83479874287946Q724.6724297979515 376.0472485927112 721.247193150585 370.4907535869834Q717.8219565032185 364.90888645794166 706.4045010119969 365.54318954078735L706.4045010119969 365.54318954078735Q703.2076134744549 365.6446780340426 699.0465852509874 366.68493508990946Q694.88555702752 367.7505642690902 690.5469239408558 369.70421776425474Q686.2082908541915 371.6578712594194 682.2756117405486 374.67715393376466L682.2756117405486 374.67715393376466L682.2756117405486 451.2248499715771ZM820.6551722941546 452.696433123779L802.4887320014552 452.696433123779L762.476893535552 349.4826354831356L785.2103160247399 349.4826354831356L804.4931297432476 406.01172622633953L814.7180954387193 440.16260420674905L809.2377168029329 440.16260420674905L818.6507745523623 406.01172622633953L837.2739130647104 349.4826354831356L859.6521258275048 349.4826354831356L820.6551722941546 452.696433123779ZM914.100702458975 452.696433123779L914.100702458975 452.696433123779Q892.1791879158294 452.696433123779 880.305034204959 438.7925095478024Q868.4308804940885 424.9139580951397 868.4308804940885 400.252254234101L868.4308804940885 400.252254234101Q868.4308804940885 385.4603063421406 873.6829100200505 373.76375749446686Q878.9349395460124 362.06720864679323 889.2106494881119 355.21673535206025Q899.4863594302113 348.3662620573273 914.4559121853686 348.1886571941304L914.4559121853686 348.1886571941304Q922.1436655494578 348.0110523309337 928.8926503509355 350.3960319224333Q935.6670072757269 352.7556393906191 940.8682925550612 357.55097069693215Q946.0695778343955 362.3463020032452 949.1396047553684 369.65347351762705Q952.1842595530275 376.960645032009 952.4633529094796 386.72891250783186L952.4633529094796 386.72891250783186Q952.4633529094796 392.4883845000703 952.3618644162243 397.0046224499313Q952.2857480462828 401.54623252310614 951.5499564701819 404.9968412937865L951.5499564701819 404.9968412937865L880.6602439313525 404.9968412937865L882.4870368099481 391.6764765540279L932.723840971323 391.6764765540279Q933.1805391909719 384.36930503964606 931.8611887786531 377.823297224679Q930.5418383663341 371.3026615330258 926.2032052796699 367.2431218028137Q921.8645721930056 363.18358207260155 913.364910882874 363.18358207260155L913.364910882874 363.18358207260155Q906.235344231689 363.18358207260155 900.5773607327059 367.1416333095583Q894.9193772337227 371.12505666982895 891.8239781894359 380.53811441925836Q888.7032070218353 389.925800045374 889.2613937347395 406.2908195827915L889.2613937347395 406.2908195827915Q889.7942083243298 417.78439144395463 893.9044923011696 424.4572598754909Q898.0147762780094 431.130128307027 904.6876447095456 433.97180611817555Q911.3605131410817 436.7881118060102 919.5810810947613 436.7881118060102L919.5810810947613 436.7881118060102Q923.0570619887554 436.7881118060102 928.0807424048929 436.02694810659546Q933.1044228210305 435.2404122838668 937.7982656340884 433.99717824148934Q942.51748057046 432.77931632242576 944.978576531901 431.30773317022386L944.978576531901 431.30773317022386L948.9873720154854 443.35949174429106Q945.6128796147467 446.09968106218423 939.8026633758806 448.2055672972318Q934.0178192603282 450.3114535322794 927.2434623355367 451.5039433280292Q920.4944775340591 452.696433123779 914.100702458975 452.696433123779ZM995.2153806932761 376.50394681236L995.2153806932761 376.50394681236L993.921402404271 362.62539535969734Q995.2914970632175 359.7837175485489 999.6808743965095 356.35848090118236Q1004.0702517298013 352.93324425381593 1010.0580728318641 350.47214829237475Q1016.0458939339271 348.0110523309337 1022.2366920225005 348.0110523309337L1022.2366920225005 348.0110523309337Q1025.7126729164947 348.0110523309337 1028.2245131245636 348.2901456873858Q1030.7363533326322 348.5692390438378 1031.9288431283821 349.27965849662496L1031.9288431283821 349.27965849662496L1031.9288431283821 369.0191704347815Q1030.5587484694356 368.2833788586805 1027.7678149049148 367.4714709126381Q1024.976881340394 366.6341908432818 1018.7860832518203 366.6341908432818L1018.7860832518203 366.6341908432818Q1013.1027276295233 366.6341908432818 1008.5864896796623 368.23263461205283Q1004.0702517298013 369.8310783808239 1000.6957593290624 372.1145694790682Q997.3212669283237 374.39806057731255 995.2153806932761 376.50394681236ZM996.3063819957706 451.2248499715771L975.2982638919228 451.2248499715771L975.2982638919228 349.66024034633233L993.2109829514839 349.66024034633233L994.657193980372 362.62539535969734L996.3063819957706 370.28777660047274L996.3063819957706 451.2248499715771ZM1044.5387884153533 445.18628462288655L1044.5387884153533 445.18628462288655L1047.4565825964435 429.6585451548251Q1048.82667725539 430.67343008737816 1053.1653103420542 432.3733623494045Q1057.5039434287185 434.047922488117 1063.5678809007227 435.46876139369124Q1069.657190496041 436.88960029926557 1076.1270819410665 436.96571666920704L1076.1270819410665 436.96571666920704Q1084.9058366076501 437.0672051624623 1089.472818804139 433.97180611817555Q1094.0398010006274 430.851034950575 1094.0398010006274 425.2945399448471L1094.0398010006274 425.2945399448471Q1094.0398010006274 421.3618608312041 1091.2996116827344 418.4440666501141Q1088.5594223648413 415.5009003457103 1083.7640910585283 412.98906013764156Q1078.9687597522152 410.4772199295728 1072.854078033583 407.73703061167964L1072.854078033583 407.73703061167964Q1064.6335100799033 404.0073284845472 1058.3158513747608 399.6179511512554Q1052.0235647929321 395.2285738179635 1048.4968396523104 389.2914969625283Q1044.9954866350022 383.354420107093 1045.0716030049439 375.057735783472L1045.0716030049439 375.057735783472Q1045.2745799914546 365.9998877604362 1050.3236325309058 360.0120666583733Q1055.3980571936709 354.04961767962425 1063.7962300105473 351.10645137522044Q1072.2197749507372 348.1886571941304 1082.5208570161508 348.1886571941304L1082.5208570161508 348.1886571941304Q1092.111519628777 348.1886571941304 1099.3425747732172 350.16768281260886Q1106.5482577943435 352.1213363077735 1108.8317488925882 353.49143096672003L1108.8317488925882 353.49143096672003L1105.7363498483014 369.37438016117505Q1104.0871618329024 368.0042855022284 1100.6619251855361 366.68493508990946Q1097.2366885381698 365.3655846775905 1092.7711948349365 364.5536767315481Q1088.2803290083891 363.71639666219187 1083.6372304419592 363.71639666219187L1083.6372304419592 363.71639666219187Q1074.3002890624712 363.71639666219187 1069.555702002786 366.40584173345735Q1064.8111149431002 369.12065892803673 1064.6335100799033 373.9413623576637L1064.6335100799033 373.9413623576637Q1064.5320215866482 380.61423078919984 1069.25123652302 383.9126068199972Q1073.9450793360775 387.1856107274807 1080.5164592743586 390.38249826502283L1080.5164592743586 390.38249826502283Q1089.9295170237879 394.9494804615115 1097.5157818946218 399.389602041431Q1105.1020467654557 403.82972362135047 1109.5167962220614 409.5384513669612Q1113.956917801981 415.2471791125721 1113.956917801981 423.64535192944845L1113.956917801981 423.64535192944845Q1113.956917801981 437.8791131085047 1104.188650326158 445.2877731161418Q1094.3950107270211 452.696433123779 1077.4210602300718 452.696433123779L1077.4210602300718 452.696433123779Q1070.3929820721419 452.696433123779 1063.7708578872334 451.5800596979707Q1057.148733702325 450.48905839547615 1052.07430903956 448.76375401013604Q1046.9998843767944 447.01307750148203 1044.5387884153533 445.18628462288655ZM1177.3364818399177 452.696433123779L1177.3364818399177 452.696433123779Q1155.4149672967724 452.696433123779 1143.5408135859018 438.7925095478024Q1131.6666598750312 424.9139580951397 1131.6666598750312 400.252254234101L1131.6666598750312 400.252254234101Q1131.6666598750312 385.4603063421406 1136.9186894009931 373.76375749446686Q1142.170718926955 362.06720864679323 1152.4464288690547 355.21673535206025Q1162.722138811154 348.3662620573273 1177.7170636896253 348.1886571941304L1177.7170636896253 348.1886571941304Q1185.3794449304005 348.0110523309337 1192.1284297318782 350.3960319224333Q1198.9027866566698 352.7556393906191 1204.104071936004 357.55097069693215Q1209.3053572153383 362.3463020032452 1212.3753841363111 369.65347351762705Q1215.4200389339703 376.960645032009 1215.6991322904223 386.72891250783186L1215.6991322904223 386.72891250783186Q1215.6991322904223 392.4883845000703 1215.623015920481 397.0046224499313Q1215.5215274272255 401.54623252310614 1214.7857358511246 404.9968412937865L1214.7857358511246 404.9968412937865L1143.9213954356092 404.9968412937865L1145.7481883142045 391.6764765540279L1195.9849924755797 391.6764765540279Q1196.4416906952288 384.36930503964606 1195.0969681595957 377.823297224679Q1193.777617747277 371.3026615330258 1189.4389846606127 367.2431218028137Q1185.1003515739485 363.18358207260155 1176.600690263817 363.18358207260155L1176.600690263817 363.18358207260155Q1169.4964957359457 363.18358207260155 1163.8131401136486 367.1416333095583Q1158.1551566146654 371.12505666982895 1155.0597575703787 380.53811441925836Q1151.938986402778 389.925800045374 1152.4971731156822 406.2908195827915L1152.4971731156822 406.2908195827915Q1153.0553598285865 417.78439144395463 1157.1656438054263 424.4572598754909Q1161.275927782266 431.130128307027 1167.9234240904884 433.97180611817555Q1174.5962925220247 436.7881118060102 1182.8168604757043 436.7881118060102L1182.8168604757043 436.7881118060102Q1186.2928413696982 436.7881118060102 1191.316521785836 436.02694810659546Q1196.3402022019732 435.2404122838668 1201.034045015031 433.99717824148934Q1205.7532599514027 432.77931632242576 1208.2143559128438 431.30773317022386L1208.2143559128438 431.30773317022386L1212.2231513964284 443.35949174429106Q1208.8486589956894 446.09968106218423 1203.0638148801372 448.2055672972318Q1197.2535986412709 450.3114535322794 1190.5046138397934 451.5039433280292Q1183.730256915002 452.696433123779 1177.3364818399177 452.696433123779ZM1321.6531192489588 451.2248499715771L1301.7360024476056 451.2248499715771L1301.7360024476056 437.701508245308L1300.645001145111 437.16869365571756L1300.645001145111 365.18797981439377L1301.380792721212 364.62979310148955L1300.645001145111 344.5350714369396L1300.645001145111 302.69644009244075L1321.6531192489588 302.69644009244075L1321.6531192489588 451.2248499715771ZM1273.3445964594348 452.696433123779L1273.3445964594348 452.696433123779Q1262.6629325443141 452.696433123779 1253.478223904709 447.3936593511894Q1244.293515265104 442.0908855785998 1238.6862760127487 431.30773317022386Q1233.0536646370792 420.5245807618478 1233.0536646370792 404.0073284845472L1233.0536646370792 404.0073284845472Q1233.0536646370792 387.4647040839328 1239.4474397121635 374.9055030435891Q1245.8412147872473 362.3463020032452 1257.3094145250966 355.2674795986878Q1268.777614262946 348.1886571941304 1284.2038652377519 348.1886571941304L1284.2038652377519 348.1886571941304Q1293.6169229871816 348.1886571941304 1300.0106980622659 350.4214040457472Q1306.4044731373497 352.6795230206776 1308.12977752269 354.227222542821L1308.12977752269 354.227222542821L1300.645001145111 367.64907577583483Q1297.904811827218 365.26409618433524 1293.388573877357 364.35069974503745Q1288.872335927496 363.43730330573976 1282.656165715609 363.43730330573976L1282.656165715609 363.43730330573976Q1274.8922959815782 363.43730330573976 1268.625381523063 367.7505642690902Q1262.3838391878617 372.03845310912675 1258.6287649374158 380.53811441925836Q1254.8990628102833 389.0124036060762 1254.7975743170282 401.54623252310614L1254.7975743170282 401.54623252310614Q1254.5184809605757 419.4335794593534 1261.0137445289151 427.75563590628826Q1267.483635973941 436.05232022990924 1279.1801848216146 436.05232022990924L1279.1801848216146 436.05232022990924Q1286.3097514727997 436.05232022990924 1291.9169907251553 433.41361940527145Q1297.5496021008244 430.77491858063354 1300.645001145111 428.2884504958786L1300.645001145111 428.2884504958786L1304.1209820391055 438.71639317786094Q1301.9389794341164 440.99988427610526 1298.2853936769257 444.27288818358886Q1294.6318079197345 447.57126421438613 1288.593242571044 450.13384866908257Q1282.5546772223533 452.696433123779 1273.3445964594348 452.696433123779Z " fill="#f2f2f2" transform="matrix(0.6620497127724062,0,0,0.6620497127724063,0,49.94617504678261)"/></g></svg>